<svg xmlns="http://www.w3.org/2000/svg" fill="none" viewBox="0 0 24 24">
  <path fill="#FFFFFF" d="M20.453 8.5c.005.392.005.818.005 1.279v3.2c0 1.035 0 1.892-.057 2.591-.06.728-.187 1.403-.511 2.038a5.214 5.214 0 0 1-2.278 2.279c-.636.323-1.31.451-2.038.51-.699.058-1.556.058-2.59.058h-3.2c-.32 0-.624 0-.911-.002H5.395A3.856 3.856 0 0 0 8.485 22h7.724A5.793 5.793 0 0 0 22 16.207V8.483a3.856 3.856 0 0 0-1.548-3.093V8.5Z"/>
  
  <path fill="#FFFFFF" fillRule="evenodd" clipRule="evenodd" d="M2 5.4A3.4 3.4 0 0 1 5.4 2h10.2A3.4 3.4 0 0 1 19 5.4v5.482l-1.91-1.25a4.037 4.037 0 0 0-4.767.253L7.87 13.528a2.763 2.763 0 0 1-3.262.173L2 11.994V5.4Zm14.392 5.299L19 12.406V15.6a3.4 3.4 0 0 1-3.4 3.4H5.4A3.4 3.4 0 0 1 2 15.6v-2.082l1.91 1.25a4.038 4.038 0 0 0 4.767-.253l4.453-3.643a2.763 2.763 0 0 1 3.262-.173ZM7.525 9.65a2.125 2.125 0 1 0 0-4.25 2.125 2.125 0 0 0 0 4.25Z"/>
</svg>